<?xml version="1.0" encoding="UTF-8" standalone="no"?>
<!-- Created with Inkscape (http://www.inkscape.org/) -->

<svg
   xmlns:dc="http://purl.org/dc/elements/1.1/"
   xmlns:cc="http://creativecommons.org/ns#"
   xmlns:rdf="http://www.w3.org/1999/02/22-rdf-syntax-ns#"
   xmlns:svg="http://www.w3.org/2000/svg"
   xmlns="http://www.w3.org/2000/svg"
   xmlns:xlink="http://www.w3.org/1999/xlink"
   xmlns:sodipodi="http://sodipodi.sourceforge.net/DTD/sodipodi-0.dtd"
   xmlns:inkscape="http://www.inkscape.org/namespaces/inkscape"
   version="1.1"
   width="750"
   height="750"
   id="svg_PythonSollyaLogo"
   sodipodi:docname="logo.svg"
   inkscape:version="0.92.3 (2405546, 2018-03-11)">
  <title
     id="title4643">PythonSollya logo</title>
  <sodipodi:namedview
     pagecolor="#ffffff"
     bordercolor="#666666"
     borderopacity="1"
     objecttolerance="10"
     gridtolerance="10"
     guidetolerance="10"
     inkscape:pageopacity="0"
     inkscape:pageshadow="2"
     inkscape:window-width="1280"
     inkscape:window-height="1004"
     id="namedview98"
     showgrid="false"
     showguides="true"
     inkscape:snap-page="true"
     inkscape:zoom="0.62933333"
     inkscape:cx="71.324618"
     inkscape:cy="223.52594"
     inkscape:window-x="0"
     inkscape:window-y="0"
     inkscape:window-maximized="1"
     inkscape:current-layer="svg_SympyLogo">
    <inkscape:grid
       type="xygrid"
       id="grid6544" />
  </sodipodi:namedview>
  <defs
     id="defs3252">
    <filter
       style="color-interpolation-filters:sRGB"
       inkscape:collect="always"
       id="filter4184">
      <feGaussianBlur
         inkscape:collect="always"
         stdDeviation="2.8766495"
         id="feGaussianBlur4186" />
    </filter>
    <radialGradient
       inkscape:collect="always"
       xlink:href="#linearGradient3994"
       id="radialGradient4297"
       gradientUnits="userSpaceOnUse"
       gradientTransform="matrix(1,0,0,0.98855186,0,5.8159625)"
       cx="424.52045"
       cy="508.02664"
       fx="424.52045"
       fy="508.02664"
       r="50.391769" />
    <linearGradient
       id="linearGradient3994">
      <stop
         style="stop-color:#0454b7;stop-opacity:1;"
         offset="0"
         id="stop3996" />
      <stop
         style="stop-color:#3e80d1;stop-opacity:1;"
         offset="1"
         id="stop3998" />
    </linearGradient>
    <filter
       style="color-interpolation-filters:sRGB"
       inkscape:collect="always"
       id="filter4180">
      <feGaussianBlur
         inkscape:collect="always"
         stdDeviation="2.946309"
         id="feGaussianBlur4182" />
    </filter>
    <filter
       style="color-interpolation-filters:sRGB"
       inkscape:collect="always"
       id="filter3804"
       x="-0.35700485"
       width="1.7140096"
       y="-0.36304924"
       height="1.7260985">
      <feGaussianBlur
         inkscape:collect="always"
         stdDeviation="14.33323"
         id="feGaussianBlur3806" />
    </filter>
    <filter
       style="color-interpolation-filters:sRGB"
       inkscape:collect="always"
       id="filter3990">
      <feGaussianBlur
         inkscape:collect="always"
         stdDeviation="2.3888716"
         id="feGaussianBlur3992" />
    </filter>
    <clipPath
       clipPathUnits="userSpaceOnUse"
       id="clipPath6626">
      <path
         inkscape:transform-center-y="-4.0180895"
         inkscape:transform-center-x="-1.5139465"
         d="m 369.73529,859.64547 c 1.79641,7.71894 -16.93516,52.06512 -23.72119,56.15889 -6.78603,4.09377 -54.75012,-0.0173 -60.74053,-5.20614 -5.9904,-5.18885 -16.90227,-52.07581 -13.81852,-59.37646 3.08376,-7.30066 44.30394,-32.16733 52.20021,-31.49053 7.89627,0.6768 44.28362,32.1953 46.08003,39.91424 z"
         inkscape:randomized="0"
         inkscape:rounded="0.13"
         inkscape:flatsided="true"
         sodipodi:arg2="0.39966144"
         sodipodi:arg1="-0.22865709"
         sodipodi:r2="25.929213"
         sodipodi:r1="51.858421"
         sodipodi:cy="871.40021"
         sodipodi:cx="319.22665"
         sodipodi:sides="5"
         id="path6628"
         style="fill:#000000;fill-opacity:1;stroke:none;stroke-width:1.02853954"
         sodipodi:type="star" />
    </clipPath>
    <clipPath
       clipPathUnits="userSpaceOnUse"
       id="clipPath935">
      <path
         sodipodi:type="star"
         style="fill:#000000;fill-opacity:1;stroke:none;stroke-width:5.72026491"
         id="path937"
         sodipodi:sides="5"
         sodipodi:cx="475.87787"
         sodipodi:cy="197.40143"
         sodipodi:r1="288.41275"
         sodipodi:r2="144.20638"
         sodipodi:arg1="-0.22865709"
         sodipodi:arg2="0.39966144"
         inkscape:flatsided="true"
         inkscape:rounded="0.13"
         inkscape:randomized="0"
         d="m 756.78372,132.02698 c 9.99079,42.9292 -94.1856,289.5623 -131.92637,312.32997 C 587.11658,467.12461 320.36228,444.2608 287.0464,415.40279 253.73053,386.54477 193.0437,125.78105 210.19412,85.178156 227.34455,44.57526 456.59233,-93.721767 500.50775,-89.957726 c 43.91542,3.764041 246.28517,179.0555 256.27597,221.984706 z"
         inkscape:transform-center-x="-1.5139465"
         inkscape:transform-center-y="-4.0180895" />
    </clipPath>
  </defs>
  <metadata
     id="metadata7">
    <rdf:RDF>
      <cc:Work
         rdf:about="">
        <dc:format>image/svg+xml</dc:format>
        <dc:type
           rdf:resource="http://purl.org/dc/dcmitype/StillImage" />
        <dc:title>PythonSollya logo</dc:title>
        <cc:license
           rdf:resource="CECILL-C" />
        <dc:contributor>
          <cc:Agent>
            <dc:title>Fredrik Johansson
The SymPy Development Team
Sylvain Chevillard
Christoph Lauter</dc:title>
          </cc:Agent>
        </dc:contributor>
      </cc:Work>
    </rdf:RDF>
  </metadata>
  <g
     transform="matrix(6.3453147,0,0,6.3453147,-1658.0357,-5132.6135)"
     id="g5369"
     clip-path="url(#clipPath6626)">
    <path
       sodipodi:type="star"
       style="fill:#044ca6;fill-opacity:0.61373387;stroke:none;filter:url(#filter4184)"
       id="path4279"
       sodipodi:sides="5"
       sodipodi:cx="423.39285"
       sodipodi:cy="510.75504"
       sodipodi:r1="50.419479"
       sodipodi:r2="25.20974"
       sodipodi:arg1="-0.22865709"
       sodipodi:arg2="0.39966144"
       inkscape:flatsided="true"
       inkscape:rounded="0.13"
       inkscape:randomized="0"
       d="m 472.5,499.32646 c 1.74656,7.50476 -16.46526,50.62045 -23.06299,54.60062 -6.59773,3.98018 -53.23094,-0.0168 -59.05513,-5.06168 -5.82418,-5.04487 -16.43328,-50.63083 -13.43509,-57.72891 2.99819,-7.09808 43.07462,-31.27477 50.75179,-30.61675 7.67716,0.65802 43.05486,31.30197 44.80142,38.80672 z"
       inkscape:transform-center-x="-1.3619318"
       inkscape:transform-center-y="-3.6147085"
       transform="matrix(1.0242155,0,0,1.0242155,-114.39268,348.69073)" />
    <path
       transform="translate(-104.1127,360.99285)"
       inkscape:transform-center-y="-3.5292504"
       inkscape:transform-center-x="-1.3297278"
       d="m 472.5,499.32646 c 1.74656,7.50476 -16.46526,50.62045 -23.06299,54.60062 -6.59773,3.98018 -53.23094,-0.0168 -59.05513,-5.06168 -5.82418,-5.04487 -16.43328,-50.63083 -13.43509,-57.72891 2.99819,-7.09808 43.07462,-31.27477 50.75179,-30.61675 7.67716,0.65802 43.05486,31.30197 44.80142,38.80672 z"
       inkscape:randomized="0"
       inkscape:rounded="0.13"
       inkscape:flatsided="true"
       sodipodi:arg2="0.39966144"
       sodipodi:arg1="-0.22865709"
       sodipodi:r2="25.20974"
       sodipodi:r1="50.419479"
       sodipodi:cy="510.75504"
       sodipodi:cx="423.39285"
       sodipodi:sides="5"
       id="path4281"
       style="fill:url(#radialGradient4297);fill-opacity:1;stroke:none;filter:url(#filter4180)"
       sodipodi:type="star" />
    <path
       transform="matrix(-0.20809734,0.00807214,-0.00806348,-0.20787428,412.76267,971.15217)"
       inkscape:transform-center-y="0.79056475"
       inkscape:transform-center-x="0.1651355"
       d="m 472.5,499.32646 c 1.74656,7.50476 -16.46526,50.62045 -23.06299,54.60062 -6.59773,3.98018 -53.23094,-0.0168 -59.05513,-5.06168 -5.82418,-5.04487 -16.43328,-50.63083 -13.43509,-57.72891 2.99819,-7.09808 43.07462,-31.27477 50.75179,-30.61675 7.67716,0.65802 43.05486,31.30197 44.80142,38.80672 z"
       inkscape:randomized="0"
       inkscape:rounded="0.13"
       inkscape:flatsided="true"
       sodipodi:arg2="0.39966144"
       sodipodi:arg1="-0.22865709"
       sodipodi:r2="25.20974"
       sodipodi:r1="50.419479"
       sodipodi:cy="510.75504"
       sodipodi:cx="423.39285"
       sodipodi:sides="5"
       id="path4283"
       style="fill:#ffffff;fill-opacity:1;stroke:none;filter:url(#filter3804)"
       sodipodi:type="star" />
    <path
       sodipodi:type="star"
       style="fill:#f9cc6e;fill-opacity:1;stroke:none;filter:url(#filter3990)"
       id="path4285"
       sodipodi:sides="5"
       sodipodi:cx="423.39285"
       sodipodi:cy="510.75504"
       sodipodi:r1="50.419479"
       sodipodi:r2="25.20974"
       sodipodi:arg1="-0.22865709"
       sodipodi:arg2="0.39966144"
       inkscape:flatsided="true"
       inkscape:rounded="0.18"
       inkscape:randomized="0"
       d="m 472.5,499.32646 c 2.41831,10.39121 -13.92767,49.08961 -23.06299,54.60062 -9.13532,5.51102 -50.99087,1.92353 -59.05513,-5.06168 -8.06425,-6.98521 -17.58642,-47.9008 -13.43509,-57.72891 4.15134,-9.82811 40.12186,-31.52785 50.75179,-30.61675 10.62992,0.91111 42.3831,28.41552 44.80142,38.80672 z"
       inkscape:transform-center-x="0.095865784"
       inkscape:transform-center-y="0.45892007"
       transform="matrix(-0.12079947,0.00468583,-0.00468081,-0.12066999,374.00765,928.3807)" />
    <path
       style="fill:#43517d;stroke:#43517d;stroke-width:1px;stroke-linecap:round;stroke-linejoin:round;stroke-opacity:1"
       d="m 316.304,883.54043 c -14.8285,16.19077 -15.90432,15.28763 -21.08693,19.69798"
       id="path4287"
       inkscape:connector-curvature="0"
       inkscape:transform-center-x="14.647212"
       inkscape:transform-center-y="24.36993"
       sodipodi:nodetypes="cc" />
    <path
       style="fill:#43517d;stroke:#43517d;stroke-width:1px;stroke-linecap:round;stroke-linejoin:round;stroke-opacity:1"
       d="m 332.94986,877.4096 c 10.81608,19.10596 9.62469,19.85004 12.21767,26.14187"
       id="use4289"
       inkscape:connector-curvature="0"
       inkscape:transform-center-x="14.647212"
       inkscape:transform-center-y="24.36993"
       sodipodi:nodetypes="cc" />
    <path
       style="fill:#43517d;stroke:#43517d;stroke-width:1px;stroke-linecap:round;stroke-linejoin:round;stroke-opacity:1"
       d="m 332.26294,859.68396 c 21.5132,-4.38263 21.85271,-3.01962 28.63786,-3.54141"
       id="use4291"
       inkscape:connector-curvature="0"
       inkscape:transform-center-x="14.647212"
       inkscape:transform-center-y="24.36993"
       sodipodi:nodetypes="cc" />
    <path
       style="fill:#43517d;stroke:#43517d;stroke-width:1px;stroke-linecap:round;stroke-linejoin:round;stroke-opacity:1"
       d="m 315.19258,854.85972 c 2.47982,-21.81458 3.88102,-21.71627 5.48151,-28.33058"
       id="use4293"
       inkscape:connector-curvature="0"
       inkscape:transform-center-x="14.647212"
       inkscape:transform-center-y="24.36993"
       sodipodi:nodetypes="cc" />
    <path
       style="fill:#43517d;stroke:#43517d;stroke-width:1px;stroke-linecap:round;stroke-linejoin:round;stroke-opacity:1"
       d="m 305.32941,869.60378 c -19.98059,-9.09951 -19.4541,-10.40176 -25.25011,-13.96785"
       id="use4295"
       inkscape:connector-curvature="0"
       inkscape:transform-center-x="14.647212"
       inkscape:transform-center-y="24.36993"
       sodipodi:nodetypes="cc" />
  </g>
  <g
     id="g3326"
     transform="matrix(1.1409274,0,0,1.1409274,-175.38429,171.47422)"
     clip-path="url(#clipPath935)">
    <g
       id="SnakeShadowOnCube">
      <path
         style="opacity:0.5;fill:#000000;fill-opacity:1;fill-rule:evenodd;stroke:#000000;stroke-width:1px;stroke-linecap:butt;stroke-linejoin:miter;stroke-opacity:1"
         d="m 361,258.36218 c -0.70716,-12.24406 30.37723,-0.41926 40.87569,-0.20744 42.65415,9.58012 91.11924,19.12533 119.87475,55.18152 13.95012,16.96243 18.22545,38.78479 17.57661,60.21892 3.30774,19.38758 -1.81304,37.24023 -24.69794,36.9018 23.5013,-14.46759 -15.69386,-39.42027 -26.10931,-52.13244 C 448.30379,322.18412 404.07583,290.9105 361,258.36218 Z"
         id="path3329"
         inkscape:connector-curvature="0" />
      <path
         style="opacity:0.5;fill:#000000;fill-opacity:1;fill-rule:evenodd;stroke:#000000;stroke-width:1.08229625px;stroke-linecap:butt;stroke-linejoin:miter;stroke-opacity:1"
         d="m 238.15783,193.79605 c -5.00573,47.29674 29.92692,87.278 67.33706,111.17954 24.37551,16.78104 53.12629,33.03114 83.82743,27.55639 24.77371,-6.25379 38.79952,16.06516 56.45934,24.61558 25.99635,-6.83887 16.46506,-40.50276 -0.61611,-52.45712 -34.50609,-35.28236 -82.36047,-52.82828 -119.16322,-85.35478 -25.60407,-20.37748 -50.61167,-41.98815 -79.6022,-57.5224 -5.8997,9.46814 -6.51352,21.20951 -8.2423,31.98279 z"
         id="path3331"
         inkscape:connector-curvature="0" />
      <path
         style="opacity:0.5;fill:#000000;fill-opacity:1;fill-rule:evenodd;stroke:#000000;stroke-width:1px;stroke-linecap:butt;stroke-linejoin:miter;stroke-opacity:1"
         d="m 532,109.36218 c -58.96165,-2.27515 -121.03334,-4.44796 -175.92182,20.67509 -27.05429,13.08949 -40.49472,45.13631 -30.52536,73.47755 -1.89998,15.31919 21.40848,37.90384 8.65135,46.95372 -16.37643,-9.99385 -56.15688,-5.78091 -46.378,-34.18546 2.72461,-26.97363 5.44923,-53.94727 8.17383,-80.9209 33.66667,-15.33333 67.33333,-30.66666 101,-45.999997 45,6.666668 90,13.333337 135,19.999997 z"
         id="path3333"
         inkscape:connector-curvature="0" />
    </g>
    <g
       id="SnakeBody">
      <path
         style="fill:#72ba45;fill-opacity:1;fill-rule:evenodd;stroke:#344829;stroke-width:8;stroke-linecap:butt;stroke-linejoin:round;stroke-miterlimit:4;stroke-dasharray:none;stroke-opacity:1"
         d="m 248.76738,444.18516 c -5.44967,-8.53141 -29.07872,-27.24078 -21.55967,-32.36646 46.06098,13.66396 92.24731,27.01694 138.46789,40.17404 24.07776,-2.97852 54.08989,-5.66529 68.88988,-27.35821 14.39517,-24.3475 17.78093,-57.30148 3.4736,-82.28285 -28.91772,-32.13276 -76.42742,-29.13284 -112.78866,-47.64611 -26.6953,-13.34539 -51.20043,-32.35046 -69.40215,-56.00812 -21.69262,-36.32218 -10.80901,-82.54768 9.39905,-116.98797 20.04714,-32.395442 59.77397,-42.585403 94.58221,-50.10618 61.73803,-9.654812 125.80112,-5.298085 186.03593,11.110126 28.07738,7.740925 55.15183,25.005364 85.44283,18.493254 24.51641,-2.435497 45.15605,18.96558 53.9444,40.48679 12.94929,17.41828 32.00015,48.07344 0.50944,58.77105 -19.46039,3.12402 -38.13218,-8.19445 -58.10082,-8.11505 -21.88102,-0.83751 -34.93032,-18.32613 -42.59991,-36.58539 -12.61436,-16.02013 -10.33726,-40.11662 -36.68163,-41.62819 -59.08381,-12.41724 -122.31818,-20.792516 -181.11592,-2.35409 -26.47307,8.73239 -56.52961,23.55546 -62.7593,53.57475 -4.68222,17.08911 2.00611,37.53091 19.51929,44.16224 26.36277,12.24795 55.97785,14.62949 83.49713,23.48842 46.54198,12.34508 97.37683,37.6602 113.8959,86.28875 7.39006,28.06372 8.89048,57.82093 6.27013,86.63706 -5.02933,44.2194 -40.25566,83.46183 -84.43268,91.09912 -48.4456,11.09797 -99.59095,0.68654 -144.82971,-17.94431 -18.52637,-8.47356 -35.04124,-20.80504 -49.65723,-34.90267 z"
         id="path3336"
         inkscape:connector-curvature="0" />
      <path
         style="opacity:0.5;fill:#000000;fill-opacity:1;stroke:#505050;stroke-width:6;stroke-linejoin:round;stroke-miterlimit:4;stroke-dasharray:none;stroke-opacity:1"
         d="m 642.78088,175.06449 c -0.12728,9.28174 -16.61693,5.70018 -11.95073,-2.71247 2.90177,-4.92664 11.85342,-3.35892 11.95073,2.71247 z"
         id="path3338"
         inkscape:connector-curvature="0" />
      <path
         style="opacity:0.5;fill:#000000;fill-opacity:1;stroke:#505050;stroke-width:6;stroke-linejoin:round;stroke-miterlimit:4;stroke-dasharray:none;stroke-opacity:1"
         d="m 666.82248,137.58783 c 0.37232,8.63915 -13.92716,7.9105 -12.69652,-0.63536 0.75023,-7.89739 12.7072,-7.34087 12.69652,0.63536 z"
         id="path3340"
         inkscape:connector-curvature="0" />
      <path
         style="fill:none;stroke:#9d2020;stroke-width:6;stroke-linecap:butt;stroke-linejoin:miter;stroke-miterlimit:4;stroke-dasharray:none;stroke-opacity:1"
         d="m 699.68521,195.61348 c 6.26339,13.63179 23.18263,7.21928 16.97056,25.45585"
         id="path3342"
         inkscape:connector-curvature="0" />
      <path
         style="fill:none;stroke:#9d2020;stroke-width:6;stroke-linecap:butt;stroke-linejoin:miter;stroke-miterlimit:4;stroke-dasharray:none;stroke-opacity:1"
         d="m 716.49156,206.93455 c 5.65579,0.11008 11.31412,-0.0252 16.97056,0"
         id="path3344"
         inkscape:connector-curvature="0" />
    </g>
    <g
       id="SnakeShadowsOnHimself">
      <path
         style="fill:#2e642c;fill-opacity:1;fill-rule:evenodd;stroke:#000000;stroke-width:0;stroke-linecap:butt;stroke-linejoin:miter;stroke-miterlimit:4;stroke-dasharray:none;stroke-opacity:1"
         d="m 247.06512,201.86764 c -0.20693,27.47956 18.2509,49.86475 38.85879,65.94842 27.76941,24.65202 64.1358,33.5361 98.88257,43.33928 21.74502,6.42853 43.0138,16.55482 58.69414,33.21408 -3.55211,-18.17392 -19.97368,-35.32807 -37.30738,-43.92252 -42.75858,-22.83798 -97.92928,-21.37633 -132.80688,-58.52437 -10.68649,-11.92839 -20.10463,-25.22997 -26.32124,-40.05489 z"
         id="path3347"
         inkscape:connector-curvature="0" />
      <path
         style="fill:#2e642c;fill-opacity:1;fill-rule:evenodd;stroke:#000000;stroke-width:0;stroke-linecap:butt;stroke-linejoin:miter;stroke-miterlimit:4;stroke-dasharray:none;stroke-opacity:1"
         d="m 523.94862,350.50954 c -2.52882,37.59885 -8.0265,78.53278 -33.95162,107.82436 -45.03439,29.7681 -104.02865,31.51507 -154.65601,16.66949 -30.39727,-9.74108 -59.68827,-24.14046 -85.43195,-42.96909 -6.8876,-9.13823 -22.96942,-16.90213 -10.21467,-0.0156 28.41352,42.49277 81.28169,55.55363 128.32831,65.09776 37.37987,6.44567 77.88922,5.26924 110.77628,-15.84245 30.44863,-17.81171 46.99682,-52.6193 47.35805,-87.25447 1.63156,-14.58145 -1.24121,-29.00883 -2.20839,-43.50998 z"
         id="path3349"
         inkscape:connector-curvature="0" />
      <path
         style="fill:#2e642c;fill-opacity:1;fill-rule:evenodd;stroke:#000000;stroke-width:0;stroke-linecap:butt;stroke-linejoin:miter;stroke-miterlimit:4;stroke-dasharray:none;stroke-opacity:1"
         d="m 307.358,201.83211 c -9.18536,-23.25685 -7.07695,-53.94127 15.31887,-68.97982 20.74835,-16.6185 46.6624,-27.55113 72.93047,-30.88151 38.01317,-2.906277 76.10243,0.56417 114.08543,2.32625 -58.79427,-9.921857 -122.35967,-19.180081 -178.99269,4.99694 -31.99003,11.86141 -51.37671,54.47137 -30.33658,83.94279 2.05656,3.07531 4.41463,5.9453 6.9945,8.59535 z"
         id="path3351"
         inkscape:connector-curvature="0" />
      <path
         style="fill:#2e642c;fill-opacity:1;fill-rule:evenodd;stroke:#000000;stroke-width:0;stroke-linecap:butt;stroke-linejoin:miter;stroke-miterlimit:4;stroke-dasharray:none;stroke-opacity:1"
         d="m 576,122.86218 c 5.74278,20.08003 26.40605,32.27168 24.5,55 -6.54622,-19.42399 -26.07529,-32.5514 -25.1068,-54.7583 z"
         id="path3353"
         inkscape:connector-curvature="0" />
      <path
         style="fill:#4f873b;fill-opacity:1;fill-rule:evenodd;stroke:#000000;stroke-width:0;stroke-linecap:butt;stroke-linejoin:miter;stroke-miterlimit:4;stroke-dasharray:none;stroke-opacity:1"
         d="m 522.64319,350.78705 c -5.35758,33.45581 -13.79681,69.75062 -41.73331,91.87675 -32.35429,27.05461 -77.34223,30.46778 -117.79506,28.38352 -34.23503,-3.254 -66.85888,-16.23376 -97.75413,-30.67549 -11.15934,-1.30182 -23.93483,-24.14445 -31.30907,-18.79933 23.09982,43.82588 74.45274,58.94393 119.64599,67.93553 39.81315,8.50056 82.90291,3.46488 118.80997,-15.9247 28.21002,-17.13648 49.06253,-47.60164 50.11702,-81.17235 2.0945,-13.86503 0.50265,-27.75564 0.0186,-41.62393 z"
         id="path3355"
         inkscape:connector-curvature="0" />
      <path
         style="fill:#4f873b;fill-opacity:1;fill-rule:evenodd;stroke:#000000;stroke-width:0;stroke-linecap:butt;stroke-linejoin:miter;stroke-miterlimit:4;stroke-dasharray:none;stroke-opacity:1"
         d="m 247.42428,191.09585 c -0.20693,27.47956 18.2509,49.86475 38.85879,65.94842 24.66378,21.73661 56.22478,31.40178 87.08165,40.4369 23.73869,7.62201 46.7264,18.67462 65.30085,35.51885 -3.02495,-15.95787 -20.95869,-27.86678 -35.44403,-35.56421 -43.27837,-22.29107 -98.36819,-22.23274 -133.4311,-59.36369 -10.77713,-13.83156 -15.72961,-31.01185 -22.36616,-46.97627 z"
         id="path3357"
         inkscape:connector-curvature="0" />
    </g>
    <g
       id="SnakeHighlight">
      <path
         style="fill:#c7e06d;fill-opacity:1;fill-rule:evenodd;stroke:#c7e06d;stroke-width:13.42280579;stroke-linecap:butt;stroke-linejoin:miter;stroke-miterlimit:4;stroke-dasharray:none;stroke-opacity:0.52631579"
         d="m 489.7672,394.90659 c -0.40973,-39.06388 -8.79994,-83.41953 -43.07766,-107.21749 -39.94645,-29.71153 -94.43286,-21.21229 -136.35425,-46.53612 -7.58134,-16.87519 31.95624,-1.44816 42.10315,-0.90656 43.79613,12.40178 94.51605,15.27456 128.30954,49.32524 20.33353,24.45004 29.5889,60.76293 18.26837,91.19856 -2.214,5.20818 -5.30249,10.0673 -9.24915,14.13637 z"
         id="path3360"
         inkscape:connector-curvature="0" />
      <path
         style="fill:#c7e06d;fill-opacity:1;fill-rule:evenodd;stroke:#c7e06d;stroke-width:8;stroke-linecap:butt;stroke-linejoin:miter;stroke-miterlimit:4;stroke-dasharray:none;stroke-opacity:0.51315792"
         d="m 263.1579,189.5392 c -6.35951,-32.68839 7.84667,-68.68319 37.13845,-85.65008 47.32294,-31.209963 106.67342,-30.27868 161.13692,-27.248725 52.56597,4.022163 103.9016,18.62487 152.10887,39.630565 C 561.09009,105.29303 509.88058,86.878904 455.84097,84.936055 407.42215,82.5062 355.2426,80.474059 311.39742,104.52721 c -20.82011,13.72923 -41.01573,33.96432 -41.70649,60.52934 -3.90563,24.06647 9.04207,48.77355 30.83389,59.56463 10.81938,-0.004 33.48427,23.6138 12.08367,17.99954 -23.5346,-6.80059 -45.92199,-28.12763 -49.45059,-53.08152 z"
         id="path3362"
         inkscape:connector-curvature="0" />
      <path
         style="opacity:0.5;fill:#c7e06d;fill-opacity:1;stroke:#650606;stroke-width:0;stroke-linejoin:bevel;stroke-miterlimit:4;stroke-dasharray:none;stroke-opacity:1"
         d="m 660.49999,124.8622 c -5.52579,-3.85882 -35.72379,-22.9557 -9.62754,-13.91565 3.89985,1.68953 25.08479,14.88914 9.62754,13.91565 z"
         id="path3364"
         inkscape:connector-curvature="0" />
      <path
         style="opacity:0.5;fill:#c7e06d;fill-opacity:1;stroke:#650606;stroke-width:0;stroke-linejoin:bevel;stroke-miterlimit:4;stroke-dasharray:none;stroke-opacity:1"
         d="m 685.49999,192.3622 c 11.55832,-4.48336 6.05496,-24.77808 4.24105,-27.25934 10.13433,0.4332 10.19347,25.8139 0.75895,25.25934"
         id="path3366"
         inkscape:connector-curvature="0" />
      <path
         style="opacity:0.5;fill:#c7e06d;fill-opacity:1;stroke:#650606;stroke-width:0;stroke-linejoin:bevel;stroke-miterlimit:4;stroke-dasharray:none;stroke-opacity:1"
         d="m 613.76867,167.06451 c 4.85597,-17.64854 45.93865,-1.05323 28.18831,-24.81913 -6.38964,-9.34871 6.21103,-29.99261 -12.63196,-16.19306 -6.46215,10.86525 -30.76733,-1.88908 -26.87005,14.14213"
         id="path3368"
         inkscape:connector-curvature="0" />
    </g>
    <g
       style="display:inline;opacity:0.647343"
       id="Spots">
      <path
         style="display:inline;opacity:0.5;fill:#3b4f87;fill-opacity:1;stroke:#066506;stroke-width:8;stroke-linejoin:bevel;stroke-miterlimit:4;stroke-dasharray:none;stroke-opacity:1"
         d="m 579.97768,106.7863 c -0.56858,10.47745 -14.1725,0.85518 -6.16892,-4.41256 3.00174,-1.8674 6.37525,1.28804 6.16892,4.41256 z"
         id="path5123"
         inkscape:connector-curvature="0" />
      <path
         style="display:inline;opacity:0.5;fill:#3b4f87;fill-opacity:1;stroke:#066506;stroke-width:8;stroke-linejoin:bevel;stroke-miterlimit:4;stroke-dasharray:none;stroke-opacity:1"
         d="m 539.45081,94.472589 c -0.48968,8.874871 -17.70254,4.299246 -11.23331,-3.189261 3.31257,-3.158035 10.87025,-2.037068 11.23331,3.189261 z"
         id="path5125"
         inkscape:connector-curvature="0" />
      <path
         style="display:inline;opacity:0.5;fill:#3b4f87;fill-opacity:1;stroke:#066506;stroke-width:6.0690403;stroke-linejoin:bevel;stroke-miterlimit:4;stroke-dasharray:none;stroke-opacity:1"
         d="m 496.50457,86.487314 c -1.70096,12.390848 -21.21062,-1.433501 -7.06256,-5.16736 3.84278,-0.624827 7.18678,2.244004 7.06256,5.16736 z"
         id="path5129"
         inkscape:connector-curvature="0" />
      <path
         style="display:inline;opacity:0.5;fill:#3b4f87;fill-opacity:1;stroke:#066506;stroke-width:8;stroke-linejoin:bevel;stroke-miterlimit:4;stroke-dasharray:none;stroke-opacity:1"
         d="m 453.52689,82.865991 c -0.64752,9.181727 -19.43248,6.304517 -14.60417,-2.712041 3.54005,-4.613391 13.89786,-3.895991 14.60417,2.712041 z"
         id="path5131"
         inkscape:connector-curvature="0" />
      <path
         style="display:inline;opacity:0.5;fill:#3b4f87;fill-opacity:1;stroke:#066506;stroke-width:8;stroke-linejoin:bevel;stroke-miterlimit:4;stroke-dasharray:none;stroke-opacity:1"
         d="m 403.02943,84.694421 c -0.30305,11.047754 -20.79069,7.948159 -16.30234,-2.753874 3.40141,-6.729557 15.93797,-5.363538 16.30234,2.753874 z"
         id="path5133"
         inkscape:connector-curvature="0" />
      <path
         style="display:inline;opacity:0.5;fill:#3b4f87;fill-opacity:1;stroke:#066506;stroke-width:8;stroke-linejoin:bevel;stroke-miterlimit:4;stroke-dasharray:none;stroke-opacity:1"
         d="m 357.77458,95.715235 c -0.56991,12.118015 -23.91092,8.969035 -19.01808,-3.029051 3.98095,-7.294639 18.3989,-6.075436 19.01808,3.029051 z"
         id="path5135"
         inkscape:connector-curvature="0" />
      <path
         style="display:inline;opacity:0.5;fill:#3b4f87;fill-opacity:1;stroke:#066506;stroke-width:8;stroke-linejoin:bevel;stroke-miterlimit:4;stroke-dasharray:none;stroke-opacity:1"
         d="m 318.3482,120.92843 c -0.0867,14.5056 -25.40571,13.51157 -23.98158,-1.05889 1.72064,-13.14582 23.61208,-12.39479 23.98158,1.05889 z"
         id="path5137"
         inkscape:connector-curvature="0" />
      <path
         style="display:inline;opacity:0.5;fill:#3b4f87;fill-opacity:1;stroke:#066506;stroke-width:8;stroke-linejoin:bevel;stroke-miterlimit:4;stroke-dasharray:none;stroke-opacity:1"
         d="m 291.47813,167.18326 c 0.39732,14.61828 -23.63367,16.1272 -25.32775,1.70586 -2.48633,-14.1282 20.23293,-19.08212 24.59067,-5.74195 0.4858,1.28631 0.73832,2.66127 0.73708,4.03609 z"
         id="path5141"
         inkscape:connector-curvature="0" />
      <path
         style="display:inline;opacity:0.5;fill:#3b4f87;fill-opacity:1;stroke:#066506;stroke-width:8;stroke-linejoin:bevel;stroke-miterlimit:4;stroke-dasharray:none;stroke-opacity:1"
         d="m 319.46048,228.70156 c 0.96118,16.03351 -23.7221,22.69325 -31.42639,8.47909 -9.51762,-13.52071 8.92231,-31.78015 23.03993,-22.66746 5.13063,2.85395 8.43798,8.44969 8.38646,14.18837 z"
         id="path5144"
         inkscape:connector-curvature="0" />
      <path
         style="display:inline;opacity:0.5;fill:#3b4f87;fill-opacity:1;stroke:#066506;stroke-width:8;stroke-linejoin:bevel;stroke-miterlimit:4;stroke-dasharray:none;stroke-opacity:1"
         d="m 403.201,267.29952 c 0.008,21.66209 -35.22786,24.94695 -40.41512,4.40986 -5.2342,-19.09514 22.75032,-30.51582 35.02576,-16.83807 3.33316,3.22305 5.41508,7.76485 5.38936,12.42821 z"
         id="path5148"
         inkscape:connector-curvature="0" />
      <path
         style="display:inline;opacity:0.5;fill:#3b4f87;fill-opacity:1;stroke:#066506;stroke-width:8;stroke-linejoin:bevel;stroke-miterlimit:4;stroke-dasharray:none;stroke-opacity:1"
         d="m 476.74009,304.7762 c 1.22743,15.95223 -21.85814,24.41803 -30.56642,10.5796 -10.7771,-13.05732 5.09052,-34.84982 20.6581,-26.65386 6.0818,2.84076 9.97046,9.41243 9.90832,16.07426 z"
         id="path5150"
         inkscape:connector-curvature="0" />
      <path
         style="display:inline;opacity:0.5;fill:#3b4f87;fill-opacity:1;stroke:#066506;stroke-width:8;stroke-linejoin:bevel;stroke-miterlimit:4;stroke-dasharray:none;stroke-opacity:1"
         d="m 507.85279,374.07265 c 1.56035,12.64472 -14.10072,25.59744 -24.71128,15.43572 -12.75454,-10.21671 -5.45066,-37.97992 12.68937,-34.02831 7.84505,2.29626 12.09301,10.86438 12.02191,18.59259 z"
         id="path5152"
         inkscape:connector-curvature="0" />
      <path
         style="display:inline;opacity:0.5;fill:#3b4f87;fill-opacity:1;stroke:#066506;stroke-width:8;stroke-linejoin:bevel;stroke-miterlimit:4;stroke-dasharray:none;stroke-opacity:1"
         d="m 492.29644,432.7625 c 1.21044,14.80624 -20.86006,21.65465 -27.56941,8.03431 -8.30835,-12.28964 7.29385,-30.10741 20.2101,-21.47484 4.60338,2.7789 7.40023,8.09735 7.35931,13.44053 z"
         id="path5154"
         inkscape:connector-curvature="0" />
    </g>
    <g
       style="display:inline;opacity:0.50724637"
       id="g3387" />
  </g>
</svg>
